<?xml version="1.0" encoding="utf-8"?>
<!-- Generator: Adobe Illustrator 25.2.3, SVG Export Plug-In . SVG Version: 6.00 Build 0)  -->
<svg version="1.1" id="Layer_2_1_" xmlns="http://www.w3.org/2000/svg" xmlns:xlink="http://www.w3.org/1999/xlink" x="0px" y="0px"
	 viewBox="0 0 259.3 38" style="enable-background:new 0 0 259.3 38;" xml:space="preserve">
<style type="text/css">
	.st0{fill:#FFFFFF;}
</style>
<g>
	<path class="st0" d="M4.6,36.5c-1.9-0.8-3.4-2-4.6-3.5l4.2-5.1c1.8,2.4,3.8,3.6,6.1,3.6c3.1,0,4.6-1.8,4.6-5.4V10.5H3.4V4.4h19.1
		v21.3c0,4-1,7-3,9.1c-2,2-4.9,3-8.8,3C8.5,37.7,6.4,37.3,4.6,36.5z"/>
	<path class="st0" d="M48.6,14.4c2.1,1.9,3.1,4.7,3.1,8.4v14.4h-6.8V34c-1.4,2.3-3.9,3.5-7.7,3.5c-1.9,0-3.6-0.3-5-1
		c-1.4-0.7-2.5-1.6-3.3-2.7c-0.7-1.2-1.1-2.5-1.1-3.9c0-2.3,0.9-4.2,2.6-5.5c1.8-1.3,4.5-2,8.2-2h5.8c0-1.6-0.5-2.8-1.5-3.7
		c-1-0.9-2.4-1.3-4.4-1.3c-1.3,0-2.7,0.2-4,0.6c-1.3,0.4-2.4,1-3.3,1.7l-2.6-5.1c1.4-1,3-1.7,4.9-2.2c1.9-0.5,3.9-0.8,5.9-0.8
		C43.5,11.6,46.5,12.5,48.6,14.4z M42.4,31.7c1-0.6,1.7-1.4,2.1-2.6v-2.6h-5c-3,0-4.5,1-4.5,3c0,0.9,0.4,1.7,1.1,2.2
		c0.7,0.5,1.7,0.8,3,0.8C40.3,32.6,41.4,32.3,42.4,31.7z"/>
	<path class="st0" d="M82.9,12L72.2,37.1h-7.5L54.1,12h7.5l7,17.1L75.8,12H82.9z"/>
	<path class="st0" d="M86.2,7.3C85.4,6.5,85,5.5,85,4.4s0.4-2.1,1.3-2.9c0.8-0.8,1.9-1.2,3.3-1.2c1.3,0,2.4,0.4,3.3,1.1
		c0.8,0.7,1.3,1.7,1.3,2.8c0,1.2-0.4,2.2-1.3,3C92,8,90.9,8.4,89.5,8.4C88.2,8.4,87.1,8.1,86.2,7.3z M85.9,12h7.3v25.2h-7.3V12z"/>
	<path class="st0" d="M124.5,26.6h-19.1c0.3,1.6,1.2,2.8,2.4,3.7c1.3,0.9,2.9,1.4,4.8,1.4c1.3,0,2.5-0.2,3.5-0.6c1-0.4,2-1,2.8-1.8
		l3.9,4.2c-2.4,2.7-5.8,4.1-10.4,4.1c-2.8,0-5.4-0.6-7.5-1.7c-2.2-1.1-3.9-2.6-5.1-4.6c-1.2-2-1.8-4.2-1.8-6.7
		c0-2.5,0.6-4.7,1.8-6.7c1.2-2,2.8-3.5,4.8-4.6c2-1.1,4.3-1.7,6.9-1.7c2.5,0,4.7,0.5,6.7,1.6c2,1.1,3.6,2.6,4.7,4.6
		c1.1,2,1.7,4.3,1.7,6.9C124.6,24.7,124.6,25.4,124.5,26.6z M107.4,18.5c-1.1,0.9-1.8,2.2-2.1,3.8h12.4c-0.2-1.6-0.9-2.9-2.1-3.8
		c-1.1-1-2.5-1.4-4.1-1.4C109.9,17.1,108.5,17.6,107.4,18.5z"/>
	<path class="st0" d="M140,12.5c1.5-0.6,3.2-0.9,5.1-0.9v6.7c-0.8-0.1-1.4-0.1-1.6-0.1c-2.1,0-3.7,0.6-4.9,1.8
		c-1.2,1.2-1.8,2.9-1.8,5.3v11.9h-7.3V12h7v3.3C137.3,14.1,138.5,13.1,140,12.5z"/>
	<path class="st0" d="M163.4,36.5c-1.9-0.8-3.4-2-4.6-3.5l4.2-5.1c1.8,2.4,3.8,3.6,6.1,3.6c3.1,0,4.6-1.8,4.6-5.4V10.5h-11.5V4.4
		h19.1v21.3c0,4-1,7-3,9.1c-2,2-4.9,3-8.8,3C167.3,37.7,165.2,37.3,163.4,36.5z"/>
	<path class="st0" d="M207.4,14.4c2.1,1.9,3.1,4.7,3.1,8.4v14.4h-6.8V34c-1.4,2.3-3.9,3.5-7.7,3.5c-1.9,0-3.6-0.3-5-1
		c-1.4-0.7-2.5-1.6-3.3-2.7c-0.7-1.2-1.1-2.5-1.1-3.9c0-2.3,0.9-4.2,2.6-5.5c1.8-1.3,4.5-2,8.2-2h5.8c0-1.6-0.5-2.8-1.5-3.7
		c-1-0.9-2.4-1.3-4.4-1.3c-1.3,0-2.7,0.2-4,0.6c-1.3,0.4-2.4,1-3.3,1.7l-2.6-5.1c1.4-1,3-1.7,4.9-2.2c1.9-0.5,3.9-0.8,5.9-0.8
		C202.3,11.6,205.3,12.5,207.4,14.4z M201.2,31.7c1-0.6,1.7-1.4,2.1-2.6v-2.6h-5c-3,0-4.5,1-4.5,3c0,0.9,0.4,1.7,1.1,2.2
		c0.7,0.5,1.7,0.8,3,0.8C199.1,32.6,200.2,32.3,201.2,31.7z"/>
	<path class="st0" d="M227.6,12.5c1.5-0.6,3.2-0.9,5.1-0.9v6.7c-0.8-0.1-1.4-0.1-1.6-0.1c-2.1,0-3.7,0.6-4.9,1.8
		c-1.2,1.2-1.8,2.9-1.8,5.3v11.9h-7.3V12h7v3.3C225,14.1,226.2,13.1,227.6,12.5z"/>
	<path class="st0" d="M256.1,14.4c2.1,1.9,3.1,4.7,3.1,8.4v14.4h-6.8V34c-1.4,2.3-3.9,3.5-7.7,3.5c-1.9,0-3.6-0.3-5-1
		c-1.4-0.7-2.5-1.6-3.3-2.7c-0.7-1.2-1.1-2.5-1.1-3.9c0-2.3,0.9-4.2,2.6-5.5c1.8-1.3,4.5-2,8.2-2h5.8c0-1.6-0.5-2.8-1.5-3.7
		c-1-0.9-2.4-1.3-4.4-1.3c-1.3,0-2.7,0.2-4,0.6c-1.3,0.4-2.4,1-3.3,1.7l-2.6-5.1c1.4-1,3-1.7,4.9-2.2c1.9-0.5,3.9-0.8,5.9-0.8
		C251,11.6,254,12.5,256.1,14.4z M249.9,31.7c1-0.6,1.7-1.4,2.1-2.6v-2.6h-5c-3,0-4.5,1-4.5,3c0,0.9,0.4,1.7,1.1,2.2
		c0.7,0.5,1.7,0.8,3,0.8C247.8,32.6,248.9,32.3,249.9,31.7z"/>
</g>
</svg>
